{
	"asset":{
		"generator":"Khronos glTF Blender I/O v3.5.30",
		"version":"2.0"
	},
	"scene":0,
	"scenes":[
		{
			"name":"Scene",
			"nodes":[
				0
			]
		}
	],
	"nodes":[
		{
			"mesh":0,
			"name":"eyebrow.001",
			"rotation":[
				0.9993448257446289,
				0.036193184554576874,
				0,
				0
			],
			"scale":[
				0.08962822705507278,
				0.02675798162817955,
				0.09083738923072815
			],
			"translation":[
				0.39019325375556946,
				-0.04807622730731964,
				1.0131593942642212
			]
		}
	],
	"materials":[
		{
			"doubleSided":true,
			"name":"eyebrows",
			"pbrMetallicRoughness":{
				"baseColorFactor":[
					0.22025755047798157,
					0.09371154010295868,
					0.04158414527773857,
					1
				],
				"metallicFactor":0,
				"roughnessFactor":0.5
			}
		}
	],
	"meshes":[
		{
			"name":"Cube.001",
			"primitives":[
				{
					"attributes":{
						"POSITION":0,
						"NORMAL":1
					},
					"indices":2,
					"material":0
				}
			]
		}
	],
	"accessors":[
		{
			"bufferView":0,
			"componentType":5126,
			"count":547648,
			"max":[
				3.1240196228027344,
				1.6842246055603027,
				2.3004093170166016
			],
			"min":[
				-11.545162200927734,
				-3.1637275218963623,
				-0.19556617736816406
			],
			"type":"VEC3"
		},
		{
			"bufferView":1,
			"componentType":5126,
			"count":547648,
			"type":"VEC3"
		},
		{
			"bufferView":2,
			"componentType":5125,
			"count":994128,
			"type":"SCALAR"
		}
	],
	"bufferViews":[
		{
			"buffer":0,
			"byteLength":6571776,
			"byteOffset":0,
			"target":34962
		},
		{
			"buffer":0,
			"byteLength":6571776,
			"byteOffset":6571776,
			"target":34962
		},
		{
			"buffer":0,
			"byteLength":3976512,
			"byteOffset":13143552,
			"target":34963
		}
	],
	"buffers":[
		{
			"byteLength":17120064,
			"uri":"eyebrows.bin"
		}
	]
}
